# xmcd CD database file
#
# Track frame offsets:
#	150
#	48646
#	85369
#	127375
#	159785
#	198677
#
# Disc length: 3239 seconds
#
# Revision: 0
# Processed by: cddbd v1.5.2PL0 Copyright (c) Steve Scherf et al.
# Submitted via: CDex 1.70beta2
#
DISCID=540ca506
DTITLE=Jacob Sacks Quintet - Region
DYEAR=1999
DGENRE=Jazz
TTITLE0=Milhouse
TTITLE1=Sunday Times
TTITLE2=Two
TTITLE3=Lonely
TTITLE4=Euro-Trash
TTITLE5=Region
EXTD=YEAR: 1999
EXTT0=
EXTT1=
EXTT2=
EXTT3=
EXTT4=
EXTT5=
PLAYORDER=
